<?xml version="1.0" encoding="utf-8"?>
<!-- Generator: Adobe Illustrator 19.1.0, SVG Export Plug-In . SVG Version: 6.00 Build 0)  -->
<svg version="1.1" id="Layer_1" xmlns="http://www.w3.org/2000/svg" xmlns:xlink="http://www.w3.org/1999/xlink" x="0px" y="0px"
	 viewBox="-457 258.1 44.9 44.9" style="enable-background:new -457 258.1 44.9 44.9;" xml:space="preserve">
<style type="text/css">
	.st0{fill:#FFFFFF;}
	.st1{fill:none;}
	.st2{fill:#800080;}
</style>
<ellipse class="st0" cx="-434.4" cy="280.5" rx="19.3" ry="19.4"/>
<title>email</title>
<polygon class="st1" points="-446.5,274.5 -446.5,289.1 -422.5,289.1 -422.5,274.5 -434.6,284.2 "/>
<polygon class="st1" points="-422.6,272 -446.5,272 -434.6,281.7 "/>
<polygon class="st1" points="-446.5,274.5 -446.5,289.1 -422.5,289.1 -422.5,274.5 -434.5,284.2 "/>
<polygon class="st1" points="-422.6,272 -446.5,272 -434.5,281.7 "/>
<path class="st2" d="M-434.5,258C-434.5,258-434.5,258-434.5,258c-12.4,0-22.5,10-22.5,22.4c0,12.4,10,22.5,22.5,22.5
	c12.4,0,22.5-10,22.5-22.4C-412.1,268.1-422.1,258.1-434.5,258z M-422.6,272l-12,9.7l-11.9-9.7H-422.6z M-422.5,289h-24v-14.5
	l12,9.7l12-9.7V289z"/>
</svg>
