<?xml version="1.0" encoding="utf-8"?>
<!-- Generator: Adobe Illustrator 19.1.0, SVG Export Plug-In . SVG Version: 6.00 Build 0)  -->
<svg version="1.1" id="Layer_1" xmlns="http://www.w3.org/2000/svg" xmlns:xlink="http://www.w3.org/1999/xlink" x="0px" y="0px"
	 viewBox="-449 251 60 60" style="enable-background:new -449 251 60 60;" xml:space="preserve">
<style type="text/css">
	.st0{fill:#FFFFFF;}
	.st1{fill:#0077B5;}
</style>
<circle class="st0" cx="-418.7" cy="280.6" r="25.9"/>
<path class="st1" d="M-402.2,295.1v-11.7c0-6.3-3.4-9.2-7.8-9.2c-3.6,0-5.2,2-6.1,3.4v-2.9h-6.8c0.1,1.9,0,20.4,0,20.4h6.8v-11.4
	c0-0.6,0-1.2,0.2-1.7c0.5-1.2,1.6-2.5,3.5-2.5c2.5,0,3.4,1.9,3.4,4.6V295L-402.2,295.1L-402.2,295.1z M-430,271.9
	c2.4,0,3.8-1.6,3.8-3.5c0-2-1.5-3.5-3.8-3.5s-3.8,1.5-3.8,3.5S-432.4,271.9-430,271.9L-430,271.9z M-419,311c-16.6,0-30-13.4-30-30
	s13.4-30,30-30s30,13.4,30,30S-402.4,311-419,311z M-426.6,295.1v-20.4h-6.8v20.4H-426.6z"/>
</svg>
