<?xml version="1.0" encoding="utf-8"?>
<!-- Generator: Adobe Illustrator 19.1.0, SVG Export Plug-In . SVG Version: 6.00 Build 0)  -->
<svg version="1.1" xmlns="http://www.w3.org/2000/svg" xmlns:xlink="http://www.w3.org/1999/xlink" x="0px" y="0px"
	 viewBox="0 0 36.2 36.2" style="enable-background:new 0 0 36.2 36.2;" xml:space="preserve">
<style type="text/css">
	.st0{fill:#E36C0A;}
	.st1{fill:none;}
	.st2{fill:#FFFFFF;}
</style>
<g id="Layer_2">
</g>
<g id="Layer_1">
	<circle class="st0" cx="18.1" cy="18.1" r="18.1"/>
	<path d="M24.6,29.1"/>
	<polyline points="24.6,29.1 24.6,27.6 24.6,29.1 	"/>
	<path class="st1" d="M24.6,27.6"/>
	<path d="M24.6,29.1"/>
	<g>
		<path class="st2" d="M13.1,15.4C13.1,15.3,13.1,15.3,13.1,15.4c0-0.4,0-0.8,0-1.1c0,0,0-0.1,0-0.1c0.2-0.3,0.4-0.6,0.8-0.8
			c0.4-0.2,0.8-0.3,1.2-0.4c0.5-0.1,1,0,1.5,0.1c0.5,0.1,0.9,0.4,1.3,0.8c0,0,0,0,0,0c0.1,0.1,0.2,0.3,0.2,0.4c0,0.3,0,0.6,0,0.9
			c0,0,0,0,0,0.1C16.3,15.4,14.7,15.4,13.1,15.4z"/>
		<path class="st2" d="M17.2,11.3c0,0.9-0.7,1.6-1.6,1.6c-0.9,0-1.6-0.7-1.6-1.6c0-0.9,0.7-1.6,1.6-1.6
			C16.4,9.7,17.2,10.4,17.2,11.3z"/>
		<rect x="13.1" y="16.8" class="st2" width="10" height="1"/>
		<rect x="13.1" y="19.4" class="st2" width="10" height="1"/>
		<rect x="13.1" y="21.9" class="st2" width="10" height="1"/>
		<path class="st2" d="M24.5,29.1l0-1.5c0-3.2,0-16.2,0-19.4c-4.3,0-8.6,0-13,0c0,5.8,0,11.5,0,17.3c2.9,0,8.6,0,11.5,0
			c0,0.7,0,1.4,0,2.2c0,0-2.9,0-2.9,0c-1,0-1.9,0-2.9,0c-1.9,0-3.8,0-5.7,0c-1,0-1.9-0.7-2.1-1.8c0-0.1,0-0.2,0-0.3
			c0-5.8,0-11.7,0-17.5c0-1,0.8-1.9,1.8-2c0.1,0,0.2,0,0.3,0c3.2,0,6.4,0,9.7,0c1.1,0,2.3,0,3.4,0c1,0,1.9,0.7,2.1,1.7
			c0,0.1,0,0.2,0,0.3c0,3.2,0,6.5,0,9.7c0,0,0,9.8,0,9.8v1.5h2.1c-1.1,1.1-2.1,2.1-3.2,3.2c-1.1-1.1-2.1-2.1-3.2-3.2
			C22.4,29.1,24.5,29.1,24.5,29.1z"/>
	</g>
</g>
</svg>
