<?xml version="1.0" encoding="utf-8"?>
<!-- Generator: Adobe Illustrator 19.1.0, SVG Export Plug-In . SVG Version: 6.00 Build 0)  -->
<svg version="1.1" id="Layer_2" xmlns="http://www.w3.org/2000/svg" xmlns:xlink="http://www.w3.org/1999/xlink" x="0px" y="0px"
	 viewBox="0 0 387.8 471.8" style="enable-background:new 0 0 387.8 471.8;" xml:space="preserve">
<style type="text/css">
	.st0{fill:#FFFFFF;}
	.st1{font-family:'Nunito-ExtraBold';}
	.st2{font-size:120px;}
</style>
<text transform="matrix(1 0 0 1 0 446.6994)" class="st0 st1 st2">Squillo</text>
<path class="st0" d="M10.7,185.9c0,0,13.2-39.1,49.7-70.5c0,0,1.9-22.7,8.5-27.2c0,0,9.5-7.2,24,20.8c0.9,1.7,15.2,2,17.2,2.4
	c7.6,1.6,14.8,4.5,21.7,8c9.4,4.9,17.5,12,26.7,16.9c7.7,4.1,16.8,5.3,25.3,6.5c0,0,45.6,6.8,81.8,43c24.4,28.9,22.6,66.9,1.8,104.9
	c2.4-4.3,6.7-8.2,9.4-12.4c6.6-10.5,11.5-22.1,13.7-34.4c6.5-37.4-15.3-69.1-44.7-89.3c-23.7-16.3-53.7-43.7-51.5-75.3
	c0-0.6,0.1-1.3,0.2-1.9c3-25.7,19.9-49.1,42.7-61c63.2-33.2,144,38.9,132.6,105.3c-3,17.4-12.8,32.6-26.3,43.9
	c4.9-4.1,3.8-26,3.7-31.5c-0.1-15-4.9-29.4-14.8-40.9c-4.2-4.8-9.3-9.1-15.4-11c-21.5-6.8-23.8,16.4-19.6,31.3
	c6.6,23.2,27.4,37.5,38.9,57.8c10.9,19.4,14.6,43.4,10.9,65.2c-6.4,37.4-38.3,83.4-88.5,104.9c0,0-30.1,13.3-58.6-1.4
	c-6.9-3.5-15.9-3.4-23.2-1.7c-7.9,1.8-14.7,6.1-22.7,6.7c-10.4,0.8-20.8,0.4-31.3,1.1c-10.2,0.7-30.4-4.4-17.1-17.4
	c12.8-12.5,36.2-2.7,36.2-2.7s-38-59.7,9.9-85.9c0,0,34.4-15.4,47.9,22.6c-2.6-7.2-0.4-15.2-4.5-22.8c-8.3-15.2-29-21.9-44.9-15.6
	c-14.6,5.8-21.9,21.8-36.9,26.3c-7,2.1-14.6,2.1-21.8,0.6c-1.7-0.3-20.2-7.1-19.3-8.4c-9.8,13.7-41.5,16.5-40.6-6.3
	c0.6-13.9,15-21.8,27.5-21.8c6.8,0,15.8,2.1,22.2-1.1c9.2-4.7,4.9-18.1-3.7-20.5c-9.3-2.5-19.6,4.1-28.5,5.9c-5.8,1.2-11.3,1-17-0.6
	C29.2,197.5,9.4,189.7,10.7,185.9z"/>
</svg>
