<?xml version="1.0" encoding="utf-8"?>
<!-- Generator: Adobe Illustrator 19.1.0, SVG Export Plug-In . SVG Version: 6.00 Build 0)  -->
<svg version="1.1" id="Layer_1" xmlns="http://www.w3.org/2000/svg" xmlns:xlink="http://www.w3.org/1999/xlink" x="0px" y="0px"
	 viewBox="-452 253 55 55" style="enable-background:new -452 253 55 55;" xml:space="preserve">
<style type="text/css">
	.st0{fill:#FFFFFF;}
</style>
<g>
	<g>
		<g>
			<path class="st0" d="M-421.8,284.8l-0.7-3.6c0-0.1,0-0.1-0.1-0.1s-0.1,0-0.1,0.1l-0.7,3.6c0,0.2,0,0.2,0.2,0.2h1.4
				C-421.9,285-421.8,285-421.8,284.8z"/>
		</g>
	</g>
	<g>
		<g>
			<path class="st0" d="M-432.2,294.9c-0.1-0.7-0.5-1.2-1.4-1.2s-1.4,0.5-1.4,1.2c-0.2,1.2-0.2,2.9,0,4.1c0.1,0.7,0.5,1.2,1.4,1.2
				s1.4-0.6,1.4-1.2C-432,297.8-432,296.1-432.2,294.9z"/>
		</g>
	</g>
	<g>
		<g>
			<path class="st0" d="M-438.7,253.3c-7.2,0-13,5.8-13,13v41.4h41.4c7.2,0,13-5.8,13-13v-41.4H-438.7z M-428.8,265.6
				c0-0.2,0.2-0.3,0.3-0.3h5.4c0.2,0,0.3,0.2,0.3,0.3v1.4c0,0.2-0.2,0.3-0.3,0.3h-3.5c-0.1,0-0.2,0.1-0.2,0.2v1.8
				c0,0.1,0.1,0.2,0.2,0.2h3.4c0.2,0,0.3,0.2,0.3,0.3v1.4c0,0.2-0.2,0.3-0.3,0.3h-3.4c-0.1,0-0.2,0.1-0.2,0.2v1.8h0.1
				c0,0.1,0.1,0.2,0.2,0.2h3.5c0.2,0,0.3,0.2,0.3,0.3v1.5c0,0.2-0.2,0.3-0.3,0.3h-5.5c-0.2,0-0.3-0.2-0.3-0.3V265.6z M-445.7,265.7
				c0-0.2,0.2-0.3,0.3-0.3h6.1c0.2,0,0.3,0.2,0.3,0.3v1.4c0,0.2-0.2,0.3-0.3,0.3h-1.9c-0.1,0-0.1,0-0.1,0.2v7.8
				c0,0.2-0.2,0.3-0.3,0.3h-1.5c-0.2,0-0.3-0.2-0.3-0.3v-7.8c0-0.1-0.1-0.2-0.2-0.2h-1.8c-0.2,0-0.3-0.2-0.3-0.3V265.7z
				 M-445.9,285.5c0-0.2,0.2-0.3,0.3-0.3h1.5c0.2,0,0.3,0.2,0.3,0.3v0.5c0,0.7,0.5,1.2,1.4,1.2s1.4-0.5,1.4-1.2
				c0.2-0.6-0.3-0.9-1.4-1.2c-1.9-0.4-3.4-1.2-3.4-3.1c0-1.8,1.4-3.1,3.4-3.1c2,0,3.4,1.4,3.4,3.1v0.2c0,0.2-0.2,0.3-0.3,0.3h-1.5
				c-0.2,0-0.3-0.2-0.3-0.3v-0.2c0-0.6-0.5-1.1-1.3-1.1s-1.3,0.5-1.3,1.1c0,0.5,0.5,0.9,1.3,1.1c2.1,0.4,3.6,1.3,3.6,3.4
				c0,1.9-1.5,3.3-3.7,3.3c-2.1,0-3.6-1.4-3.6-3.3V285.5z M-443.6,299c0.1,0.7,0.5,1.2,1.4,1.2c0.9,0,1.4-0.6,1.4-1.3
				c0-0.2,0.2-0.3,0.3-0.3h1.5c0.2-0.1,0.3,0.1,0.3,0.3c0,2-1.5,3.4-3.6,3.4c-2.1,0-3.4-1.5-3.6-3.3c-0.2-1.2-0.2-2.9,0-4.1
				c0.2-1.8,1.5-3.3,3.6-3.3c2.1,0,3.6,1.4,3.6,3.4c0,0.2-0.2,0.3-0.3,0.3h-1.5c-0.2,0-0.3-0.2-0.3-0.3c0-0.6-0.5-1.3-1.4-1.3
				c-0.9,0-1.4,0.5-1.4,1.2C-443.7,296.1-443.7,297.8-443.6,299z M-437.8,275.4v-9.8c0-0.2,0.2-0.3,0.3-0.3h1.5
				c0.2,0,0.3,0.2,0.3,0.3v3.7c0,0.1,0.1,0.2,0.2,0.2h2.3c0.1,0,0.2-0.1,0.2-0.2v-3.7c0-0.2,0.2-0.3,0.3-0.3h1.5
				c0.2,0,0.3,0.2,0.3,0.3v9.8c0,0.2-0.2,0.3-0.3,0.3h-1.5c-0.2,0-0.3-0.2-0.3-0.3v-3.7c0-0.1-0.1-0.2-0.2-0.2h-2.3
				c-0.1,0-0.2,0.1-0.2,0.2v3.7c0,0.2-0.2,0.3-0.4,0.3h-1.4C-437.6,275.7-437.8,275.6-437.8,275.4z M-430,298.9
				c-0.2,1.8-1.5,3.3-3.6,3.3c-2.1,0-3.4-1.5-3.6-3.3c-0.2-1.2-0.2-2.9,0-4.1c0.2-1.8,1.5-3.3,3.6-3.3c2.1,0,3.4,1.5,3.6,3.3
				C-429.9,296-429.9,297.7-430,298.9z M-429.8,288.8v-5.6c0-0.1-0.1-0.2-0.2,0l-1.5,5.6c-0.1,0.2-0.2,0.2-0.3,0.2h-1.1
				c-0.2,0-0.3-0.1-0.3-0.2l-1.5-5.6c0-0.1-0.2-0.1-0.2,0v5.6c0,0.2-0.2,0.3-0.3,0.3h-1.3c-0.2,0-0.3-0.2-0.3-0.3v-9.8
				c0-0.2,0.2-0.3,0.3-0.3h2.2c0.2,0,0.3,0.1,0.3,0.2l1.5,6.6c0,0.1,0.2,0.1,0.2,0l1.6-6.5c0.1-0.2,0.2-0.2,0.3-0.2h2.2
				c0.2,0,0.3,0.2,0.3,0.3v9.8c0,0.2-0.2,0.3-0.3,0.3h-1.3C-429.6,289.1-429.8,288.9-429.8,288.8z M-426.2,301.8
				c0,0.2-0.2,0.3-0.3,0.3h-1.8c-0.2,0-0.3-0.2-0.3-0.3V300c0-0.2,0.2-0.3,0.3-0.3h1.8c0.2,0,0.3,0.2,0.3,0.3V301.8z M-419,289.1
				h-1.6c-0.2,0-0.2-0.1-0.3-0.2l-0.4-1.5c0-0.2-0.1-0.2-0.2-0.2h-2.3c-0.2,0-0.2,0.1-0.2,0.2l-0.4,1.5c0,0.2-0.2,0.2-0.3,0.2h-1.6
				c-0.2,0-0.3-0.2-0.3-0.3l2.7-9.8c0-0.2,0.2-0.2,0.3-0.2h2c0.2,0,0.2,0.1,0.3,0.2l2.7,9.8C-418.7,288.9-418.7,289.1-419,289.1z
				 M-411,289h-1.5c-0.2,0-0.4-0.2-0.5-0.3l-1.5-3.7c0-0.1-0.1-0.2-0.3-0.2h-0.3v0.1c-0.1,0-0.2,0.1-0.2,0.2v3.7
				c0,0.2-0.2,0.3-0.3,0.3h-1.5c-0.2,0-0.3-0.2-0.3-0.3v-9.8c0-0.2,0.2-0.3,0.3-0.3h3.3c1.8,0,3.1,1.4,3.1,3.1
				c0,1.1-0.5,1.9-1.5,2.6c-0.2,0.2-0.2,0.3-0.1,0.5l1.6,3.7C-410.6,288.8-410.7,289-411,289z M-403.4,280.4c0,0.2-0.2,0.3-0.3,0.3
				h-1.9c0.1,0.1,0,0.1,0,0.2v7.8c0,0.2-0.2,0.3-0.3,0.3h-1.5c-0.2,0-0.3-0.2-0.3-0.3v-7.8c0-0.1-0.1-0.2-0.2-0.2h-1.9
				c-0.2,0-0.3-0.2-0.3-0.3v-1.4c0-0.2,0.2-0.3,0.3-0.3h6.1c0.2,0,0.3,0.2,0.3,0.3V280.4z"/>
		</g>
	</g>
	<g>
		<g>
			<path class="st0" d="M-413.7,280.7h-1.4v0.1c-0.1,0-0.2,0.1-0.2,0.2v1.8c0,0.1,0.1,0.2,0.2,0.2h1.4c0.5,0,1.1-0.5,1.1-1.1
				C-412.7,281.2-413.1,280.7-413.7,280.7z"/>
		</g>
	</g>
</g>
</svg>
